<?xml version="1.0" encoding="utf-8"?>
<!-- Generator: Adobe Illustrator 22.0.1, SVG Export Plug-In . SVG Version: 6.00 Build 0)  -->
<svg version="1.1" id="Layer_1" xmlns="http://www.w3.org/2000/svg" xmlns:xlink="http://www.w3.org/1999/xlink" x="0px" y="0px"
	 viewBox="0 0 800 800" style="enable-background:new 0 0 800 800;" xml:space="preserve">
<style type="text/css">
	.st0{fill:#CC774C;}
	.st1{fill:#FFCA82;}
	.st2{fill:#FFB763;}
	.st3{fill:#C76792;}
	.st4{fill:#FFC182;}
	.st5{fill:#FFB563;}
	.st6{fill:#FFCF63;}
	.st7{fill:#FF8363;}
	.st8{fill:#C76790;}
	.st9{fill:#FFDA8F;}
</style>
<polygon class="st0" points="54.9,721.9 188.2,721.9 121.6,557.2 "/>
<polygon class="st1" points="54.9,420.7 121.6,557.2 54.9,721.9 "/>
<path class="st0" d="M218.8,439.1"/>
<polygon class="st2" points="188.2,420.7 54.9,420.7 188.2,721.9 "/>
<polygon class="st1" points="218.8,439.1 218.8,705.8 436.9,544.3 "/>
<polygon class="st3" points="664,528 680,607.4 622,642 529.4,571.3 "/>
<polygon class="st4" points="429,77.5 466.7,68.1 520,141.1 "/>
<polygon class="st5" points="414.9,189.7 520,141.1 429,77.5 "/>
<polygon class="st6" points="218.8,439.1 573.4,456.4 598.5,625 "/>
<polygon class="st5" points="651.8,345 467.5,345 693.8,414 "/>
<polygon class="st7" points="583.2,580.3 702,500.3 637.7,439.1 "/>
<polygon class="st6" points="393,305.8 702,500.3 693.8,414 "/>
<polygon class="st6" points="520,141.1 467.5,345 374.3,243.1 414.9,189.7 "/>
<polygon class="st7" points="436.9,544.3 637.7,639.6 218.8,705.8 "/>
<polygon class="st1" points="632.7,454.5 339.6,269.7 583.2,592.5 "/>
<polygon class="st2" points="339.6,269.7 218.8,439.1 486.2,456.4 "/>
<polygon class="st8" points="637.7,639.6 598.5,721.9 218.8,705.8 "/>
<polygon class="st0" points="541.6,399.5 702,500.3 680,607.4 604.7,680.7 "/>
<polygon class="st9" points="394.5,227.4 339.6,269.7 467.1,348.6 "/>
</svg>
